<svg width="280" height="280" viewBox="50 50 180 180" xmlns="http://www.w3.org/2000/svg">
<g transform="translate(140 140)">
  <path fill="#BCA3C9" d="M-59,-7 C-57,-38 -35,-59 -3,-63 C30,-67 57,-49 63,-19 C69,6 62,38 41,55 C18,72 -15,72 -39,58 C-58,47 -65,20 -59,-7Z"/>
  <!-- 眉毛：向下倾斜，沉重感 -->
  <line x1="-30" y1="-18" x2="-12" y2="-12" stroke="#111" stroke-width="4" stroke-linecap="round"/>
  <line x1="30" y1="-18" x2="12" y2="-12" stroke="#111" stroke-width="4" stroke-linecap="round"/>
  <!-- 眼睛：偏小，无神 -->
  <circle cx="-18" cy="-2" r="3.5" fill="#111"/>
  <circle cx="18" cy="-2" r="3.5" fill="#111"/>
  <!-- 泪痕：双线，往外移 -->
  <path d="M-20,2 Q-22,16 -24,22" stroke="#8B7BA8" stroke-width="2.5" stroke-linecap="round" fill="none"/>
  <path d="M20,2 Q22,16 24,22" stroke="#8B7BA8" stroke-width="2.5" stroke-linecap="round" fill="none"/>
  <!-- 嘴巴：圆润下弯，幅度大 -->
  <path d="M-20,34 Q0,14 20,34" stroke="#111" stroke-width="5" stroke-linecap="round" fill="none"/>
</g>
</svg>