<svg width="280" height="280" viewBox="50 50 180 180" xmlns="http://www.w3.org/2000/svg">
<g transform="translate(140 140)">
<path fill="#6F86B6" d="M-61,-6 C-58,-39 -35,-61 0,-64 C36,-66 61,-44 64,-9 C67,26 49,54 15,61 C-22,68 -54,49 -62,17 C-65,9 -64,0 -61,-6Z"/>
<circle cx="-20" cy="-1" r="4" fill="#111"/>
<circle cx="20" cy="-1" r="4" fill="#111"/>
<path stroke="#111" stroke-width="5.8" stroke-linecap="round" fill="none" d="M-22,31 C-8,15 8,15 22,31"/>
<path fill="#7fb7e6" d="M28,6 C33,13 34,20 28,25 C22,20 23,13 28,6Z"/>
</g>
</svg>