<svg width="280" height="280" viewBox="50 50 180 180" xmlns="http://www.w3.org/2000/svg">
<g transform="translate(140 140)">
<path fill="#E7A15A" d="M-60,-7 C-58,-37 -35,-58 -5,-63 C26,-67 53,-51 61,-22 C69,4 65,34 46,52 C23,71 -11,72 -37,59 C-58,48 -66,21 -60,-7Z"/>
<circle cx="-20" cy="-1" r="4.1" fill="#111"/>
<circle cx="20" cy="-1" r="4.1" fill="#111"/>
<circle cx="0" cy="29" r="14" stroke="#111" stroke-width="5.8" fill="none"/>
<path d="M45,-36 C49,-36 49,-36 49,-34 L46,-14 L44,-14 L41,-34 C41,-36 41,-36 45,-36 Z" fill="#111"/>
<circle cx="45" cy="-8" r="3" fill="#111"/>
</g>
</svg>